<svg xmlns="http://www.w3.org/2000/svg" viewBox="0 0 512 512" role="img" aria-labelledby="title desc">
  <title id="title">Awesome Loop Engineering logo</title>
  <desc id="desc">A blue recurring loop surrounding a verification check, with three state lines below.</desc>
  <rect x="18" y="18" width="476" height="476" rx="238" fill="#ffffff" stroke="#d9e0ea" stroke-width="12"/>
  <path d="M126 254c0-76 60-138 136-142 55-3 106 25 134 70" fill="none" stroke="#1746d1" stroke-width="34" stroke-linecap="round"/>
  <path d="M365 125l57 83-100-5z" fill="#1746d1"/>
  <path d="M386 258c0 76-60 138-136 142-55 3-106-25-134-70" fill="none" stroke="#138ccb" stroke-width="34" stroke-linecap="round"/>
  <path d="M147 387l-57-83 100 5z" fill="#138ccb"/>
  <circle cx="256" cy="256" r="72" fill="#f7f9fc" stroke="#cbd5e1" stroke-width="8"/>
  <path d="M216 256l28 28 56-66" fill="none" stroke="#111318" stroke-width="25" stroke-linecap="round" stroke-linejoin="round"/>
  <g fill="#1746d1">
    <rect x="194" y="350" width="124" height="10" rx="5"/>
    <rect x="213" y="372" width="86" height="10" rx="5" opacity="0.68"/>
    <rect x="231" y="394" width="50" height="10" rx="5" opacity="0.42"/>
  </g>
</svg>
